#!OML:ASF H:\Terrain\Patient Classification 1\PLAYGROUND\JustinFriday\JustinFriday.ASF
:FULLY-SPECIFIED
:DEGREES
2284
root -14.6364 23.8696 3.95192 317.794 -0.0121496 11.2626
lowerback 12.4821 2.18738 -9.55947
upperback -1.50669 1.47241 0.415485
thorax -8.95185 1.20132 5.55965
lowerneck -4.6713 -1.1614 -4.52048
upperneck 36.1869 -0.294624 -2.1043
head 12.8686 -1.0349 -0.0634029
rclavicle 1.51076e-014 -5.56597e-015
rhumerus 55.4605 1.08564 -82.4157
rradius 80.818
rwrist -116.37
rhand -52.6825 -57.4066
rfingers 7.12502
rthumb -25.1616 -85.7682
lclavicle 1.51076e-014 -5.56597e-015
lhumerus 51.9564 7.18144 88.1453
lradius 81.125
lwrist 94.5283
lhand -33.9223 18.3979
lfingers 7.12502
lthumb -7.10456 48.2586
rfemur -1.23894 -4.93995 -3.33156
rtibia 58.651
rfoot 10.064 -17.4887
rtoes 33.2299
lfemur -1.48101 6.72965 -24.3655
ltibia 58.0237
lfoot 17.1102 -0.174254
ltoes -0.524869
2285
root -14.6515 23.701 4.07784 318.195 0.214467 11.4715
lowerback 12.0965 2.1457 -9.93335
upperback -1.78698 1.36936 0.207157
thorax -9.02939 1.1777 5.56691
lowerneck -4.47713 -0.858532 -3.18856
upperneck 36.6849 0.00406392 -2.32106
head 13.0269 -0.748712 -0.351352
rclavicle -1.35174e-014 4.77083e-015
rhumerus 57.591 0.537411 -82.4317
rradius 79.0507
rwrist -116.875
rhand -52.8709 -59.2477
rfingers 7.12502
rthumb -25.3421 -87.5839
lclavicle -1.35174e-014 4.77083e-015
lhumerus 52.9216 7.32536 87.9658
lradius 80.3755
lwrist 94.7957
lhand -34.1178 18.7662
lfingers 7.12502
lthumb -7.29324 48.6205
rfemur -0.908571 -4.89421 -3.64771
rtibia 58.2273
rfoot 9.87068 -17.8316
rtoes 34.0531
lfemur -1.16096 6.54089 -24.7435
ltibia 57.367
lfoot 17.2521 0.0927613
ltoes 0.0906092
2286
root -14.6711 23.5227 4.19299 318.566 0.643824 11.4399
lowerback 12.2492 1.96571 -10.4971
upperback -1.82919 1.0214 0.209651
thorax -9.12138 1.04528 5.95947
lowerneck -6.20063 -0.939198 -2.48464
upperneck 37.2338 0.220038 -3.40702
head 13.6478 -0.71713 -0.904782
rclavicle -4.77083e-015 -7.95139e-016
rhumerus 59.9209 0.660358 -82.7214
rradius 77.5456
rwrist -116.948
rhand -52.9262 -60.6068
rfingers 7.12502
rthumb -25.395 -88.9354
lclavicle -4.77083e-015 -7.95139e-016
lhumerus 54.4733 8.01724 87.846
lradius 79.5674
lwrist 94.9278
lhand -34.4634 19.1154
lfingers 7.12502
lthumb -7.6269 48.9579
rfemur -0.396696 -5.06009 -3.8587
rtibia 57.767
rfoot 10.4767 -17.3389
rtoes 32.4226
lfemur -0.794315 6.13396 -25.0519
ltibia 56.7038
lfoot 17.2753 0.10453
ltoes -0.0913733
2287
root -14.6908 23.3504 4.29885 318.976 1.14903 11.2689
lowerback 12.4821 1.72786 -10.9911
upperback -1.59056 0.616021 0.258821
thorax -8.92769 0.857003 6.3785
lowerneck -8.72827 -0.433116 -1.89325
upperneck 38.1701 0.990591 -3.33643
head 14.6636 -0.312119 -0.910374
rclavicle 7.15625e-015 1.66979e-014
rhumerus 62.2861 1.172 -83.4625
rradius 76.3766
rwrist -116.564
rhand -52.913 -61.7468
rfingers 7.12502
rthumb -25.3824 90.0773
lclavicle 7.15625e-015 1.66979e-014
lhumerus 54.5256 9.66613 86.94
lradius 80.6262
lwrist 96.2404
lhand -34.3389 18.5805
lfingers 7.12502
lthumb -7.50669 48.4273
rfemur 0.181569 -5.35689 -4.0018
rtibia 57.23
rfoot 10.8067 -16.7789
rtoes 31.4722
lfemur -0.509118 5.49816 -25.3234
ltibia 56.0167
lfoot 17.2605 0.229811
ltoes -0.987228
2288
root -14.707 23.1916 4.40997 319.406 1.33019 11.2482
lowerback 12.2558 1.83003 -10.9666
upperback -1.94188 0.756965 0.182382
thorax -9.21414 0.951046 6.24984
lowerneck -8.25131 -0.49104 -1.7705
upperneck 38.4572 0.875847 -3.35065
head 14.6906 -0.343735 -0.957782
rclavicle 0 -1.19271e-014
rhumerus 62.7318 1.06648 -84.0652
rradius 75.6495
rwrist -116.269
rhand -52.8772 -62.8076
rfingers 7.12502
rthumb -25.3481 91.143
lclavicle 0 -1.19271e-014
lhumerus 59.6726 7.78641 88.7125
lradius 74.976
lwrist 93.6027
lhand -33.3095 17.0045
lfingers 7.12502
lthumb -6.51304 46.8844
rfemur 0.615032 -5.3207 -4.01865
rtibia 56.6222
rfoot 11.3025 -16.3336
rtoes 29.7027
lfemur -0.193119 5.14484 -25.5072
ltibia 55.2971
lfoot 17.4625 0.527499
ltoes -0.85822
2289
root -14.7216 23.0311 4.53027 319.857 1.25265 11.2696
lowerback 12.0936 1.81482 -10.9674
upperback -2.19357 0.723383 -0.0185632
thorax -9.39118 0.947484 6.03458
lowerneck -7.14923 -0.665358 -0.8058
upperneck 36.8951 0.796375 -4.73644
head 13.7084 -0.398823 -1.66288
rclavicle 1.35174e-014 -3.81667e-014
rhumerus 63.4349 1.24971 -85.2463
rradius 75.132
rwrist -115.595
rhand -52.8554 -64.4262
rfingers 7.12502
rthumb -25.3272 92.7645
lclavicle 1.35174e-014 -3.81667e-014
lhumerus 60.2363 8.03177 87.9752
lradius 74.1065
lwrist 93.2059
lhand -32.2486 15.7896
lfingers 7.12502
lthumb -5.48873 45.6985
rfemur 0.978731 -4.96978 -3.82235
rtibia 55.9513
rfoot 11.6325 -16.2403
rtoes 29.3249
lfemur 0.198731 5.07841 -25.5398
ltibia 54.5702
lfoot 17.691 0.305937
ltoes -1.59064
2290
root -14.7349 22.8645 4.65233 320.351 1.1448 11.1649
lowerback 11.6441 2.06862 -10.5608
upperback -2.64754 1.1355 -0.219647
thorax -9.69602 1.14835 5.49672
lowerneck -4.32173 -0.910036 -0.585162
upperneck 35.2524 0.218314 -4.6265
head 12.354 -0.562409 -1.65487
rclavicle 1.35174e-014 -2.38542e-015
rhumerus 64.1266 0.399924 -85.4255
rradius 74.1526
rwrist -114.66
rhand -52.843 -66.3486
rfingers 7.12502
rthumb -25.3154 94.6886
lclavicle 1.35174e-014 -2.38542e-015
lhumerus 61.1199 7.24702 88.2726
lradius 72.8226
lwrist 93.3062
lhand -32.6565 16.6636
lfingers 7.12502
lthumb -5.88256 46.5619
rfemur 1.30059 -4.72391 -3.49036
rtibia 55.2525
rfoot 12.7407 -15.7651
rtoes 26.9338
lfemur 0.547155 5.00297 -25.4475
ltibia 53.8426
lfoot 17.7892 0.264148
ltoes -2.79456
2291
root -14.7454 22.7022 4.77094 320.835 0.982271 11
lowerback 10.529 1.62913 -10.7452
upperback -1.33984 0.797503 0.455893
thorax -7.5573 0.855631 6.42576
lowerneck -7.71835 -0.214909 -2.23233
upperneck 35.4 1.43103 -3.75609
head 13.1718 -0.157596 -0.898375
rclavicle -3.26007e-014 -2.38542e-014
rhumerus 69.0222 1.73673 -85.1717
rradius 72.5509
rwrist -114.182
rhand -52.7882 -68.0277
rfingers 7.12502
rthumb -25.2629 96.3751
lclavicle -3.26007e-014 -2.38542e-014
lhumerus 65.1592 8.90825 89.4125
lradius 71.6805
lwrist 92.5544
lhand -32.9366 17.2293
lfingers 7.12502
lthumb -6.15305 47.1199
rfemur 1.60548 -4.48019 -3.08155
rtibia 54.5216
rfoot 13.6116 -15.4001
rtoes 24.6794
lfemur 0.890608 4.898 -25.2901
ltibia 53.1155
lfoot 17.9192 0.66864
ltoes -2.33529
2292
root -14.7559 22.5448 4.88408 321.254 0.771104 10.7849
lowerback 10.549 1.84229 -10.1266
upperback -2.12831 1.10933 0.34103
thorax -8.47334 1.05304 5.88772
lowerneck -4.46086 -0.188907 -2.85331
upperneck 34.4605 1.04408 -2.65948
head 12.064 -0.222303 -0.390125
rclavicle 7.95139e-015 1.90833e-014
rhumerus 68.9724 1.16591 -85.3468
rradius 71.5578
rwrist -113.491
rhand -52.7322 -69.4789
rfingers 7.12502
rthumb -25.2092 97.8338
lclavicle 7.95139e-015 1.90833e-014
lhumerus 64.6818 7.92116 89.9442
lradius 71.152
lwrist 91.5577
lhand -32.8085 17.6194
lfingers 7.12502
lthumb -6.0293 47.5136
rfemur 2.0795 -4.00869 -2.51873
rtibia 53.7425
rfoot 13.1003 -16.1048
rtoes 27.2378
lfemur 1.30112 4.78987 -25.0801
ltibia 52.4084
lfoot 18.1272 0.812283
ltoes -1.85569
2293
root -14.7698 22.3813 4.9897 321.628 0.620271 10.4494
lowerback 10.6411 1.96379 -9.56303
upperback -2.64237 1.31811 0.410193
thorax -9.11408 1.17596 5.59867
lowerneck -1.28384 -0.0479067 -4.25021
upperneck 32.8694 0.803693 -1.24195
head 10.778 -0.284917 0.367058
rclavicle -8.74653e-015 3.57812e-014
rhumerus 69.9492 0.785541 -85.4084
rradius 69.8437
rwrist -113.4
rhand -52.711 -70.4067
rfingers 7.12502
rthumb -25.1889 98.7645
lclavicle -8.74653e-015 3.57812e-014
lhumerus 66.5238 7.89545 89.9217
lradius 68.6736
lwrist 91.4804
lhand -32.6451 18.049
lfingers 7.12502
lthumb -5.87158 47.9476
rfemur 2.68938 -3.58591 -1.81714
rtibia 52.9302
rfoot 12.8244 -16.3755
rtoes 28.1567
lfemur 1.70304 4.60153 -24.7689
ltibia 51.756
lfoot 18.3739 1.09153
ltoes -1.40234
2294
root -14.7859 22.2079 5.08827 322.008 0.542515 9.98717
lowerback 9.939 2.08911 -8.93295
upperback -2.80148 1.63794 0.39733
thorax -8.9072 1.29223 5.17596
lowerneck 3.55305 0.235759 -5.52544
upperneck 29.648 0.439315 0.650186
head 8.67488 -0.324859 1.2091
rclavicle -2.18663e-014 1.03368e-014
rhumerus 71.3582 0.0336082 -85.4317
rradius 68.1266
rwrist -113.351
rhand -52.7062 -71.4647
rfingers 7.12502
rthumb -25.1842 99.8232
lclavicle -2.18663e-014 1.03368e-014
lhumerus 68.215 7.42731 89.7704
lradius 66.5072
lwrist 91.5894
lhand -32.6603 18.1559
lfingers 7.12502
lthumb -5.88622 48.0541
rfemur 3.27546 -3.38366 -1.04866
rtibia 52.1165
rfoot 13.7207 -15.6503
rtoes 26.0752
lfemur 2.04874 4.27241 -24.3672
ltibia 51.1765
lfoot 18.6587 1.45578
ltoes -0.747157
2295
root -14.8019 22.0298 5.18575 322.461 0.38643 9.48259
lowerback 10.3362 2.18568 -8.43409
upperback -3.259 1.77464 0.391236
thorax -9.64565 1.37345 4.84765
lowerneck 8.59871 1.54368 -8.2295
upperneck 25.1741 0.840981 5.65957
head 6.20615 0.0516332 3.27407
rclavicle 9.93923e-015 -1.98785e-015
rhumerus 72.3863 -0.534286 -85.1921
rradius 67.2105
rwrist -113.35
rhand -52.7505 -73.3499
rfingers 7.12502
rthumb -25.2267 101.702
lclavicle 9.93923e-015 -1.98785e-015
lhumerus 69.5011 7.13818 89.4
lradius 64.7165
lwrist 91.592
lhand -32.6729 18.3179
lfingers 7.12502
lthumb -5.89842 48.2158
rfemur 3.72807 -3.22995 -0.206672
rtibia 51.3049
rfoot 14.1989 -15.7702
rtoes 26.509
lfemur 2.26954 3.9993 -23.8387
ltibia 50.6641
lfoot 18.9251 1.80676
ltoes 0.381862
2296
root -14.8177 21.8508 5.28418 322.968 0.132466 8.92506
lowerback 10.7878 2.13483 -7.98204
upperback -3.32967 1.73168 0.448479
thorax -9.96448 1.34138 4.65358
lowerneck 5.39873 1.33918 -6.95801
upperneck 27.5132 0.937585 4.91161
head 7.52029 0.173314 2.88847
rclavicle -1.78906e-014 -1.82882e-014
rhumerus 74.3967 -0.792101 -85.0746
rradius 66.1978
rwrist -113.504
rhand -52.7438 -75.2398
rfingers 7.12502
rthumb -25.2203 103.593
lclavicle -1.78906e-014 -1.82882e-014
lhumerus 71.534 7.25749 89.0214
lradius 63.1737
lwrist 91.2067
lhand -32.3631 18.4899
lfingers 7.12502
lthumb -5.59934 48.3959
rfemur 4.07861 -2.99208 0.76836
rtibia 50.4757
rfoot 14.4497 -16.1738
rtoes 27.0444
lfemur 2.394 3.83341 -23.1578
ltibia 50.2025
lfoot 19.0866 2.24831
ltoes 1.69567
2297
root -14.8324 21.6806 5.37971 323.429 -0.14268 8.26655
lowerback 10.3687 1.93602 -7.47297
upperback -2.85039 1.61657 0.703687
thorax -9.1561 1.22278 4.67864
lowerneck 3.46432 1.73422 -7.67701
upperneck 28.535 1.26745 6.58964
head 8.14097 0.415552 3.64918
rclavicle 5.96354e-015 -1.66979e-014
rhumerus 76.7507 -0.717819 -84.9948
rradius 65.4413
rwrist -113.745
rhand -52.7275 -76.875
rfingers 7.12502
rthumb -25.2047 105.231
lclavicle 5.96354e-015 -1.66979e-014
lhumerus 74.4347 7.83471 88.7625
lradius 61.4042
lwrist 90.6216
lhand -31.8183 18.4271
lfingers 7.12502
lthumb -5.07325 48.3464
rfemur 4.51231 -2.58606 1.91489
rtibia 49.6059
rfoot 14.9281 -16.1181
rtoes 28.221
lfemur 2.62172 3.63555 -22.4098
ltibia 49.746
lfoot 19.2679 2.41989
ltoes 1.74246
2298
root -14.8457 21.5146 5.46984 323.864 -0.354819 7.46257
lowerback 11.2304 1.88919 -6.39158
upperback -3.33855 1.6238 0.65393
thorax -10.1567 1.20496 3.99203
lowerneck 5.82671 1.45584 -7.29974
upperneck 25.754 0.916499 5.79077
head 6.8375 0.212742 3.19549
rclavicle -3.02153e-014 -7.55382e-015
rhumerus 77.6393 -1.35469 -84.8257
rradius 64.7712
rwrist -114.211
rhand -52.71 -78.5161
rfingers 7.12502
rthumb -25.1879 106.874
lclavicle -3.02153e-014 -7.55382e-015
lhumerus 76.1552 7.80494 88.102
lradius 59.2424
lwrist 90.0451
lhand -31.3065 19.0988
lfingers 7.12502
lthumb -4.57915 49.0293
rfemur 5.03549 -2.18461 3.22802
rtibia 48.6914
rfoot 14.8876 -16.7627
rtoes 27.9185
lfemur 2.87116 3.21253 -21.6219
ltibia 49.314
lfoot 19.4913 2.78168
ltoes 2.53035
